<svg id="eYq8c6GavW71" xmlns="http://www.w3.org/2000/svg" xmlns:xlink="http://www.w3.org/1999/xlink" viewBox="-72.03675 -32.46875 480.25 129.88" shape-rendering="geometricPrecision" text-rendering="geometricPrecision">
<path d="M92.497,55.588h-40.356c-1.041771.000552-1.886.845229-1.886,1.887v19.73c0,1.042.845,1.888,1.886,1.888h15.743v24.515c0,0-3.535,1.204-13.308,1.204-11.53,0-27.636-4.212-27.636-39.63c0-35.426,16.772-40.087,32.517-40.087c13.63,0,19.502,2.4,23.238,3.556c1.174.358,2.26-.81,2.26-1.851L89.457,7.736c0-.488-.165-1.075-.72-1.473C87.22,5.18,77.963,0,54.576,0C27.636,0,0,11.463,0,66.563c0,55.101,31.64,63.312,58.303,63.312c22.076,0,35.468-9.434,35.468-9.434.552-.304.612-1.076.612-1.429v-61.537c.000265-.500372-.198321-.98034-.552043-1.33425s-.833585-.55275-1.333957-.55275M300.475,6.602c.004528-.500335-.190581-.981834-.542127-1.337884s-.830521-.557273-1.330873-.559116h-22.723c-.500995.002117-.98063.20317-1.333387.558927s-.549739.837078-.547613,1.338073l.005,43.914h-35.418v-43.914c0-1.05-.836-1.897-1.876-1.897h-22.722c-1.041545.006608-1.880986.855446-1.876,1.897v118.904c0,1.048.843,1.902,1.876,1.902h22.722c1.04,0,1.876-.854,1.876-1.902v-50.86h35.418l-.061,50.86c0,1.048.841,1.902,1.883,1.902h22.775c1.04,0,1.872-.854,1.874-1.902ZM135.376,22.205c0-8.181-6.56-14.793-14.653-14.793-8.085,0-14.65,6.612-14.65,14.793c0,8.174,6.565,14.804,14.65,14.804c8.093,0,14.653-6.63,14.653-14.804m-1.625,78.219v-54.887c0-1.041-.84-1.893-1.88-1.893h-22.65c-1.04,0-1.97,1.07-1.97,2.113v78.636c0,2.31,1.44,2.998,3.304,2.998h20.408c2.239,0,2.788-1.1,2.788-3.035ZM386.832,43.822h-22.548c-1.035,0-1.876.852-1.876,1.902v58.301c0,0-5.73,4.192-13.86,4.192s-10.288-3.69-10.288-11.65v-50.844c0-1.05-.84-1.902-1.875-1.902h-22.885c-1.032,0-1.879.852-1.879,1.902v54.692c0,23.646,13.179,29.432,31.308,29.432c14.875,0,26.867-8.218,26.867-8.218s.57,4.331.83,4.844c.257.512.93,1.03,1.658,1.03l14.559-.064c1.032,0,1.878-.854,1.878-1.899l-.008-79.817c0-1.05-.842-1.902-1.881-1.902m52.736,64.324c-7.822-.239-13.127-3.787-13.127-3.787v-37.655c0,0,5.233-3.208,11.655-3.781c8.12-.727,15.944,1.725,15.944,21.096c0,20.425-3.53,24.457-14.472,24.127m8.893-66.994c-12.807,0-21.517,5.715-21.517,5.715v-40.264c0-1.05-.84-1.897-1.875-1.897h-22.788c-.500466.002645-.979382.203995-1.331389.559753s-.54827.836781-.545611,1.337247v118.904c0,1.05.841,1.903,1.88,1.903h15.81c.712,0,1.251-.368,1.65-1.011.393-.639.96-5.481.96-5.481s9.317,8.829,26.956,8.829c20.71,0,32.585-10.504,32.585-47.155c0-36.65-18.968-41.44-31.784-41.44M199.058,43.633h-17.045l-.026-22.519c0-.852-.438-1.278-1.425-1.278h-23.227c-.902,0-1.388.398-1.388,1.266v23.27c0,0-11.64,2.809-12.426,3.037-.806823.233352-1.362114.972109-1.362,1.812v14.623c0,1.05.84,1.9,1.879,1.9h11.91v35.178c0,26.128,18.327,28.695,30.694,28.695c5.652,0,12.412-1.815,13.528-2.227.675-.248,1.068-.946,1.068-1.704l.019-16.086c0-1.05-.887-1.9-1.884-1.9-.994,0-3.535.405-6.151.405-8.372,0-11.21-3.892-11.21-8.93v-33.432h17.046c.501435-.002381.981371-.20393,1.334157-.560279s.549502-.838287.546843-1.339721v-18.315c0-1.05-.842-1.895-1.881-1.895" transform="translate(-72.03675-32.46875)" fill="#211c1a"/></svg>